<?xml version="1.0" encoding="UTF-8"?>
<svg width="36px" height="36px" viewBox="0 0 36 36" version="1.1" xmlns="http://www.w3.org/2000/svg" xmlns:xlink="http://www.w3.org/1999/xlink">
    <!-- Generator: Sketch 49.2 (51160) - http://www.bohemiancoding.com/sketch -->
    <title>call</title>
    <desc>Created with Sketch.</desc>
    <defs></defs>
    <g id="Page-1" stroke="none" stroke-width="1" fill="none" fill-rule="evenodd">
        <g id="11" transform="translate(-1.000000, -1.000000)" fill="#FFFFFF">
            <path d="M36.8,29.9 L36.6,29.4 C36.2,28.2 34.8,26.9 33.6,26.6 L29,25.2 C27.7,24.9 26,25.3 25,26.2 L23.3,27.9 C17.2,26.3 12.5,21.5 10.8,15.4 L12.5,13.7 C13.4,12.8 13.9,11 13.5,9.8 L12.2,5.2 C12,4 10.7,2.7 9.5,2.2 L9,2.1 C7.8,1.7 6,2.1 5.1,3 L2.6,5.5 C2.1,5.9 1.9,7.2 1.9,7.2 C1.8,15.1 4.9,22.8 10.5,28.4 C16.1,34 23.7,37.1 31.6,37 C31.6,37 32.9,36.7 33.4,36.3 L35.9,33.8 C36.8,32.9 37.2,31.1 36.8,29.9 Z" id="call"></path>
        </g>
    </g>
</svg>