<?xml version="1.0" encoding="UTF-8"?>
<svg width="98px" height="96px" viewBox="0 0 98 96" version="1.1" xmlns="http://www.w3.org/2000/svg" xmlns:xlink="http://www.w3.org/1999/xlink">
    <!-- Generator: Sketch 49.2 (51160) - http://www.bohemiancoding.com/sketch -->
    <title>logo</title>
    <desc>Created with Sketch.</desc>
    <defs></defs>
    <g id="Page-1" stroke="none" stroke-width="1" fill="none" fill-rule="evenodd">
        <g id="logo" fill="#FFFFFF">
            <g id="Shape_2_copy_1_" transform="translate(65.000000, 0.000000)">
                <g id="Shape_2_copy">
                    <path d="M4.5,0.9 C2,0.9 0,3 0,5.5 L0,32 L3,35 L3,5.5 C3,4.7 3.7,4 4.5,4 C5.3,4 6,4.7 6,5.5 L6,38 L9,41 L9,5.5 C9,3 7,0.9 4.5,0.9 Z" id="Shape"></path>
                </g>
            </g>
            <g id="Shape_2_copy_3_1_" transform="translate(24.000000, 11.000000)">
                <g id="Shape_2_copy_3">
                    <path d="M6,6 L6,35.5 C6,36.3 5.3,37 4.5,37 C3.7,37 3,36.3 3,35.5 L3,3 L0,0 L0,35.5 C0,38 2,40 4.5,40 C7,40 9,38 9,35.5 L9,9 L6,6 Z" id="Shape"></path>
                </g>
            </g>
            <g id="HOBO-HCK_АГЕНТСТВО_НОВОСТРОЕК_1_" transform="translate(0.000000, 64.000000)">
                <g id="HOBO-HCK_АГЕНТСТВО_НОВОСТРОЕК">
                    <path d="M7.8,12.2 L7.8,14 L12.9,14 L12.9,12.2 L11.5,12.2 L11.5,2.8 L12.9,2.8 L12.9,1 L7.8,1 L7.8,2.8 L9.2,2.8 L9.2,6.1 L4.1,6.1 L4.1,2.8 L5.5,2.8 L5.5,1 L0.3,1 L0.3,2.8 L1.7,2.8 L1.7,12.2 L0.3,12.2 L0.3,14 L5.4,14 L5.4,12.2 L4.1,12.2 L4.1,8.2 L9.3,8.2 L9.3,12.2 L7.8,12.2 Z M25.7,12.1 C26.3,11.5 26.7,10.8 27,10 C27.3,9.2 27.5,8.4 27.5,7.5 C27.5,6.5 27.3,5.6 26.9,4.7 C26.5,3.8 26,3.1 25.2,2.4 C24.6,1.9 23.9,1.4 23.1,1.2 C22.3,0.9 21.5,0.8 20.6,0.8 C18.7,0.8 17,1.4 15.7,2.7 C14.4,4 13.8,5.6 13.8,7.5 C13.8,9.4 14.4,11 15.7,12.3 C17,13.6 18.6,14.2 20.5,14.2 C21.5,14.2 22.4,14 23.3,13.7 C24.3,13.4 25.1,12.8 25.7,12.1 Z M17.6,10.8 C16.8,9.9 16.4,8.9 16.4,7.6 C16.4,6.3 16.8,5.2 17.6,4.4 C18.4,3.5 19.5,3.1 20.7,3.1 C21.9,3.1 23,3.5 23.8,4.4 C24.6,5.3 25,6.3 25,7.7 C25,9 24.6,10.1 23.8,11 C23,11.9 21.9,12.3 20.7,12.3 C19.5,12.1 18.4,11.6 17.6,10.8 Z M36.9,13.1 C37.7,12.5 38.1,11.5 38.1,10.3 C38.1,9.5 37.9,8.8 37.4,8.2 C36.9,7.6 36.2,7.3 35.3,7 C36,6.8 36.6,6.5 37,6 C37.4,5.6 37.5,5 37.5,4.3 C37.5,3.2 37.1,2.4 36.4,1.9 C35.7,1.3 34.6,1.1 33.2,1.1 L28.5,1.1 L28.5,2.9 L29.9,2.9 L29.9,12.3 L28.5,12.3 L28.5,14 L33.2,14 C34.8,14 36.1,13.7 36.9,13.1 Z M32.2,2.8 L33.2,2.8 C33.8,2.8 34.3,2.9 34.7,3.2 C35,3.5 35.2,3.9 35.2,4.5 C35.2,5 35,5.4 34.7,5.7 C34.3,6 33.9,6.1 33.2,6.1 L32.2,6.1 L32.2,2.8 Z M32.2,7.9 L33.2,7.9 C34.1,7.9 34.8,8.1 35.2,8.4 C35.6,8.7 35.8,9.3 35.8,10 C35.8,10.8 35.6,11.3 35.2,11.6 C34.8,11.9 34.1,12.1 33.2,12.1 L32.2,12.1 L32.2,7.9 Z M53.2,7.5 C53.2,6.5 53,5.6 52.6,4.7 C52.2,3.8 51.7,3.1 50.9,2.4 C50.3,1.9 49.6,1.4 48.8,1.2 C48,0.9 47.2,0.8 46.3,0.8 C44.4,0.8 42.7,1.4 41.4,2.7 C40.1,4 39.5,5.6 39.5,7.5 C39.5,9.4 40.1,11 41.4,12.3 C42.7,13.6 44.3,14.2 46.2,14.2 C47.2,14.2 48.1,14 49,13.7 C49.8,13.3 50.6,12.8 51.2,12.1 C51.8,11.5 52.2,10.8 52.5,10 C53.1,9.2 53.2,8.4 53.2,7.5 Z M49.5,10.8 C48.7,11.7 47.6,12.1 46.4,12.1 C45.2,12.1 44.1,11.7 43.3,10.8 C42.5,9.9 42.1,8.9 42.1,7.6 C42.1,6.3 42.5,5.2 43.3,4.4 C44.1,3.5 45.2,3.1 46.4,3.1 C47.6,3.1 48.7,3.5 49.5,4.4 C50.3,5.3 50.7,6.3 50.7,7.7 C50.7,8.8 50.3,9.9 49.5,10.8 Z M58.8,8.9 L54.3,8.9 L54.3,10.8 L58.8,10.8 L58.8,8.9 Z M67.2,2.8 L68.6,2.8 L68.6,6.1 L63.4,6.1 L63.4,2.8 L64.8,2.8 L64.8,1 L59.7,1 L59.7,2.8 L61.1,2.8 L61.1,12.2 L59.7,12.2 L59.7,14 L64.8,14 L64.8,12.2 L63.4,12.2 L63.4,8.2 L68.6,8.2 L68.6,12.2 L67.2,12.2 L67.2,14 L72.3,14 L72.3,12.2 L70.9,12.2 L70.9,2.8 L72.3,2.8 L72.3,1 L67.2,1 L67.2,2.8 Z M80.1,14.3 C81.5,14.3 82.7,13.9 83.7,13.1 C84.7,12.3 85.4,11.2 85.8,9.8 L83.5,9.8 C83.1,10.6 82.6,11.2 82.1,11.5 C81.5,11.9 80.9,12 80.1,12 C78.8,12 77.8,11.6 77,10.7 C76.2,9.9 75.8,8.8 75.8,7.4 C75.8,6 76.2,4.9 77,4.1 C77.8,3.3 78.8,2.8 80.1,2.8 C80.9,2.8 81.6,3 82.2,3.4 C82.8,3.8 83.2,4.4 83.4,5.2 L85.3,5.2 L85.3,1 L83.4,1 L83.4,2.1 C83,1.7 82.5,1.3 81.9,1.1 C81.3,0.9 80.6,0.8 79.8,0.8 C77.9,0.8 76.3,1.4 75.1,2.7 C73.9,4 73.2,5.6 73.2,7.5 C73.2,9.4 73.8,11 75.1,12.3 C76.5,13.6 78.2,14.3 80.1,14.3 Z M96.8,12.2 L93.1,7.1 L96.8,2.8 L97.7,2.8 L97.7,1 L92.8,1 L92.8,2.8 L94.2,2.8 L90.6,7 L90.6,2.8 L92,2.8 L92,1 L86.9,1 L86.9,2.8 L88.3,2.8 L88.3,12.2 L86.9,12.2 L86.9,14 L92,14 L92,12.2 L90.6,12.2 L90.6,7.4 L94.1,12.2 L92.8,12.2 L92.8,14 L98,14 L98,12.2 L96.8,12.2 Z M4.6,26 L2.7,31 L3.4,31 L4,29.5 L6,29.5 L6.6,31 L7.4,31 L5.3,26 L4.6,26 Z M4.1,28.9 L4.7,27.4 C4.8,27.1 4.9,26.8 5,26.4 C5.1,26.7 5.2,27 5.4,27.4 L5.9,28.8 L4.1,28.8 L4.1,28.9 Z M7.9,31 L8.6,31 L8.6,26.6 L11.2,26.6 L11.2,26 L7.9,26 L7.9,31 Z M12.3,28.7 L15.1,28.7 L15.1,28.1 L12.3,28.1 L12.3,26.6 L15.3,26.6 L15.3,26 L11.7,26 L11.7,31 L15.4,31 L15.4,30.4 L12.3,30.4 L12.3,28.7 Z M19.6,28 L17,28 L17,26 L16.3,26 L16.3,31 L17,31 L17,28.6 L19.6,28.6 L19.6,31 L20.3,31 L20.3,26 L19.6,26 L19.6,28 Z M21,26.6 L22.7,26.6 L22.7,31 L23.4,31 L23.4,26.6 L25,26.6 L25,26 L21,26 L21,26.6 Z M28.7,30.2 C28.4,30.4 28.1,30.5 27.8,30.5 C27.5,30.5 27.2,30.4 26.9,30.3 C26.6,30.2 26.4,29.9 26.3,29.6 C26.2,29.3 26.1,28.9 26.1,28.5 C26.1,28.2 26.2,27.8 26.3,27.5 C26.4,27.2 26.6,26.9 26.8,26.8 C27,26.7 27.4,26.5 27.8,26.5 C28.1,26.5 28.4,26.6 28.6,26.7 C28.8,26.8 29,27.1 29.1,27.5 L29.8,27.3 C29.7,26.8 29.4,26.5 29.1,26.2 C28.8,25.9 28.3,25.8 27.8,25.8 C27.4,25.8 27,25.9 26.6,26.1 C26.2,26.3 25.9,26.6 25.7,27 C25.5,27.4 25.4,27.8 25.4,28.4 C25.4,28.9 25.5,29.3 25.7,29.7 C25.9,30.1 26.1,30.4 26.5,30.7 C26.9,31 27.3,31 27.8,31 C28.3,31 28.8,30.9 29.1,30.6 C29.4,30.3 29.7,29.9 29.9,29.4 L29.2,29.2 C29.2,29.7 29,30 28.7,30.2 Z M30.4,26.6 L32,26.6 L32,31 L32.7,31 L32.7,26.6 L34.4,26.6 L34.4,26 L30.4,26 L30.4,26.6 Z M37.8,28.3 C38,28.2 38.2,28 38.3,27.8 C38.4,27.6 38.5,27.4 38.5,27.2 C38.5,27 38.4,26.7 38.3,26.5 C38.2,26.3 38,26.1 37.8,26 C37.5,26 37.2,26 36.9,26 L35,26 L35,31 L36.9,31 C37.2,31 37.5,31 37.7,30.9 C37.9,30.8 38.1,30.8 38.2,30.7 C38.3,30.6 38.5,30.4 38.6,30.2 C38.7,30 38.7,29.8 38.7,29.5 C38.7,29.2 38.6,29 38.5,28.7 C38.4,28.6 38.1,28.4 37.8,28.3 Z M35.6,26.6 L36.6,26.6 C37,26.6 37.2,26.6 37.4,26.7 C37.5,26.7 37.7,26.8 37.7,27 C37.8,27.1 37.8,27.3 37.8,27.4 C37.8,27.6 37.8,27.7 37.7,27.8 C37.6,27.9 37.5,28 37.4,28 C37.3,28 37.1,28.1 36.8,28.1 L35.7,28.1 L35.7,26.6 L35.6,26.6 Z M38,30 C37.9,30.1 37.8,30.2 37.7,30.3 C37.6,30.4 37.5,30.4 37.3,30.4 C37.2,30.4 37.1,30.4 36.8,30.4 L35.6,30.4 L35.6,28.7 L36.8,28.7 C37.1,28.7 37.4,28.7 37.5,28.8 C37.7,28.9 37.8,29 37.9,29.1 C38,29.2 38,29.4 38,29.6 C38.1,29.7 38,29.8 38,30 Z M43.1,26.2 C42.7,26 42.3,25.9 41.8,25.9 C41.1,25.9 40.5,26.1 40.1,26.6 C39.7,27.1 39.4,27.7 39.4,28.6 C39.4,29 39.5,29.5 39.7,29.9 C39.9,30.3 40.2,30.6 40.5,30.8 C40.9,31 41.3,31.1 41.8,31.1 C42.2,31.1 42.6,31 43,30.8 C43.4,30.6 43.7,30.3 43.9,29.9 C44.1,29.5 44.2,29 44.2,28.5 C44.2,28 44.1,27.6 43.9,27.2 C43.7,26.8 43.5,26.5 43.1,26.2 Z M43.1,30 C42.8,30.4 42.4,30.5 41.9,30.5 C41.4,30.5 41,30.3 40.7,30 C40.4,29.7 40.2,29.2 40.2,28.6 C40.2,27.8 40.4,27.3 40.7,27 C41,26.7 41.4,26.5 41.9,26.5 C42.2,26.5 42.5,26.6 42.8,26.8 C43.1,27 43.3,27.2 43.4,27.5 C43.5,27.8 43.6,28.2 43.6,28.6 C43.6,29.1 43.4,29.6 43.1,30 Z M50.4,28 L47.8,28 L47.8,26 L47.1,26 L47.1,31 L47.8,31 L47.8,28.6 L50.4,28.6 L50.4,31 L51,31 L51,26 L50.3,26 L50.3,28 L50.4,28 Z M55.6,26.2 C55.2,26 54.8,25.9 54.3,25.9 C53.6,25.9 53,26.1 52.6,26.6 C52.2,27.1 51.9,27.7 51.9,28.6 C51.9,29 52,29.5 52.2,29.9 C52.4,30.3 52.7,30.6 53,30.8 C53.4,31 53.8,31.1 54.3,31.1 C54.7,31.1 55.1,31 55.5,30.8 C55.9,30.6 56.2,30.3 56.4,29.9 C56.6,29.5 56.7,29 56.7,28.5 C56.7,28 56.6,27.6 56.4,27.2 C56.2,26.8 55.9,26.5 55.6,26.2 Z M55.5,30 C55.2,30.4 54.8,30.5 54.3,30.5 C53.8,30.5 53.4,30.3 53.1,30 C52.8,29.7 52.6,29.2 52.6,28.6 C52.6,27.8 52.8,27.3 53.1,27 C53.4,26.7 53.8,26.5 54.3,26.5 C54.6,26.5 54.9,26.6 55.2,26.8 C55.5,27 55.7,27.2 55.8,27.5 C55.9,27.8 56,28.2 56,28.6 C56,29.1 55.9,29.6 55.5,30 Z M60.4,28.3 C60.6,28.2 60.8,28 60.9,27.8 C61,27.6 61.1,27.4 61.1,27.2 C61.1,27 61,26.7 60.9,26.5 C60.8,26.3 60.6,26.1 60.4,26 C60.1,26 59.8,26 59.4,26 L57.5,26 L57.5,31 L59.4,31 C59.7,31 60,31 60.2,30.9 C60.4,30.8 60.6,30.8 60.7,30.7 C60.8,30.6 61,30.4 61.1,30.2 C61.2,30 61.2,29.8 61.2,29.5 C61.2,29.2 61.1,29 61,28.7 C60.9,28.6 60.7,28.4 60.4,28.3 Z M58.2,26.6 L59.2,26.6 C59.6,26.6 59.8,26.6 60,26.7 C60.1,26.7 60.3,26.8 60.3,27 C60.4,27.1 60.4,27.3 60.4,27.4 C60.4,27.6 60.4,27.7 60.3,27.8 C60.2,27.9 60.1,28 59.9,28 C59.8,28 59.6,28.1 59.3,28.1 L58.2,28.1 L58.2,26.6 Z M60.5,30 C60.4,30.1 60.3,30.2 60.2,30.3 C60.1,30.4 60,30.4 59.8,30.4 C59.7,30.4 59.6,30.4 59.3,30.4 L58.1,30.4 L58.1,28.7 L59.3,28.7 C59.6,28.7 59.9,28.7 60,28.8 C60.2,28.9 60.3,29 60.4,29.1 C60.5,29.2 60.5,29.4 60.5,29.6 C60.6,29.7 60.6,29.8 60.5,30 Z M65.7,26.2 C65.3,26 64.9,25.9 64.4,25.9 C63.7,25.9 63.1,26.1 62.7,26.6 C62.3,27.1 62,27.7 62,28.6 C62,29 62.1,29.5 62.3,29.9 C62.5,30.3 62.8,30.6 63.1,30.8 C63.5,31 63.9,31.1 64.4,31.1 C64.8,31.1 65.2,31 65.6,30.8 C66,30.6 66.3,30.3 66.5,29.9 C66.7,29.5 66.8,29 66.8,28.5 C66.8,28 66.7,27.6 66.5,27.2 C66.3,26.8 66.1,26.5 65.7,26.2 Z M65.7,30 C65.4,30.4 65,30.5 64.5,30.5 C64,30.5 63.6,30.3 63.3,30 C63,29.7 62.8,29.2 62.8,28.6 C62.8,27.8 63,27.3 63.3,27 C63.6,26.7 64,26.5 64.5,26.5 C64.8,26.5 65.1,26.6 65.4,26.8 C65.7,27 65.9,27.2 66,27.5 C66.1,27.8 66.2,28.2 66.2,28.6 C66.1,29.1 66,29.6 65.7,30 Z M70.7,30.2 C70.4,30.4 70.1,30.5 69.8,30.5 C69.5,30.5 69.2,30.4 68.9,30.3 C68.6,30.1 68.4,29.9 68.3,29.6 C68.2,29.3 68.1,28.9 68.1,28.5 C68.1,28.2 68.2,27.8 68.3,27.5 C68.4,27.2 68.6,26.9 68.8,26.8 C69.1,26.6 69.4,26.5 69.8,26.5 C70.1,26.5 70.4,26.6 70.6,26.7 C70.8,26.9 71,27.1 71.1,27.5 L71.8,27.3 C71.7,26.8 71.4,26.5 71.1,26.2 C70.8,25.9 70.3,25.8 69.8,25.8 C69.4,25.8 69,25.9 68.6,26.1 C68.2,26.3 67.9,26.6 67.7,27 C67.5,27.4 67.4,27.8 67.4,28.4 C67.4,28.9 67.5,29.3 67.7,29.7 C67.9,30.1 68.1,30.4 68.5,30.7 C68.9,31 69.3,31 69.8,31 C70.3,31 70.8,30.9 71.1,30.6 C71.5,30.3 71.7,29.9 71.9,29.4 L71.2,29.2 C71.2,29.7 71,30 70.7,30.2 Z M72.4,26.6 L74,26.6 L74,31 L74.7,31 L74.7,26.6 L76.4,26.6 L76.4,26 L72.4,26 L72.4,26.6 Z M80.3,26.3 C80.1,26.2 79.9,26.1 79.7,26.1 C79.5,26.1 79.3,26.1 78.9,26.1 L77,26.1 L77,31.1 L77.7,31.1 L77.7,29.1 L79,29.1 C79.7,29.1 80.2,29 80.5,28.7 C80.8,28.4 80.9,28 80.9,27.6 C80.9,27.4 80.8,27.1 80.7,26.9 C80.6,26.5 80.4,26.4 80.3,26.3 Z M79.9,28.1 C79.7,28.3 79.4,28.3 79,28.3 L77.7,28.3 L77.7,26.5 L79,26.5 C79.3,26.5 79.5,26.5 79.6,26.5 C79.8,26.5 79.9,26.6 80,26.8 C80.1,27 80.2,27.1 80.2,27.3 C80.1,27.7 80.1,28 79.9,28.1 Z M85.1,26.2 C84.7,26 84.3,25.9 83.8,25.9 C83.1,25.9 82.5,26.1 82.1,26.6 C81.7,27.1 81.4,27.7 81.4,28.6 C81.4,29 81.5,29.5 81.7,29.9 C81.9,30.3 82.2,30.6 82.5,30.8 C82.9,31 83.3,31.1 83.8,31.1 C84.2,31.1 84.6,31 85,30.8 C85.4,30.6 85.7,30.3 85.9,29.9 C86.1,29.5 86.2,29 86.2,28.5 C86.2,28 86.1,27.6 85.9,27.2 C85.7,26.8 85.5,26.5 85.1,26.2 Z M85.1,30 C84.8,30.4 84.4,30.5 83.9,30.5 C83.4,30.5 83,30.3 82.7,30 C82.4,29.7 82.2,29.2 82.2,28.6 C82.2,27.8 82.4,27.3 82.7,27 C83,26.7 83.4,26.5 83.9,26.5 C84.2,26.5 84.5,26.6 84.8,26.8 C85.1,27 85.3,27.2 85.4,27.5 C85.5,27.8 85.6,28.2 85.6,28.6 C85.6,29.1 85.4,29.6 85.1,30 Z M87.8,28.7 L90.6,28.7 L90.6,28.1 L87.8,28.1 L87.8,26.6 L90.8,26.6 L90.8,26 L87.2,26 L87.2,31 L90.9,31 L90.9,30.4 L87.8,30.4 L87.8,28.7 Z M93.3,28.4 C93.5,28.3 93.6,28.2 93.7,28.1 C93.8,28 94,27.7 94.1,27.3 C94.2,27 94.4,26.7 94.5,26.6 C94.6,26.5 94.8,26.4 95,26.4 C95,26.4 95.1,26.4 95.1,26.4 C95.2,26.4 95.2,26.4 95.2,26.4 L95.2,26 C95.2,26 95.1,26 94.8,26 C94.6,26 94.4,26 94.2,26.1 C94,26.2 93.9,26.3 93.8,26.4 C93.7,26.5 93.6,26.8 93.5,27.1 C93.3,27.5 93.2,27.8 93,27.9 C92.8,28 92.7,28.1 92.4,28.1 L92.4,26 L91.7,26 L91.7,31 L92.4,31 L92.4,28.7 C92.6,28.7 92.8,28.8 93,28.9 C93.2,29 93.3,29.3 93.6,29.7 L94.4,31.1 L95.2,31.1 L94.2,29.4 C94,28.8 93.6,28.5 93.3,28.4 Z" id="Shape"></path>
                </g>
            </g>
            <g id="Shape_2_copy_6_1_" transform="translate(23.000000, 0.000000)">
                <g id="Shape_2_copy_6">
                    <path d="M49.7,43.3 L8.7,2.3 C6.9,0.5 4.1,0.5 2.3,2.3 C0.5,4.1 0.5,6.9 2.3,8.7 L43.3,49.7 C45.1,51.5 47.9,51.5 49.7,49.7 C51.4,47.9 51.4,45.1 49.7,43.3 Z M47.6,47.6 C47,48.2 46.1,48.2 45.5,47.6 L4.5,6.6 C3.9,6 3.9,5.1 4.5,4.5 C5.1,3.9 6,3.9 6.6,4.5 L47.6,45.5 C48.2,46 48.2,47 47.6,47.6 Z" id="Shape"></path>
                </g>
            </g>
        </g>
    </g>
</svg>