<?xml version="1.0" encoding="UTF-8"?>
<svg width="22px" height="22px" viewBox="0 0 22 22" version="1.1" xmlns="http://www.w3.org/2000/svg" xmlns:xlink="http://www.w3.org/1999/xlink">
    <!-- Generator: Sketch 49.2 (51160) - http://www.bohemiancoding.com/sketch -->
    <title>social-skype</title>
    <desc>Created with Sketch.</desc>
    <defs></defs>
    <g id="Page-1" stroke="none" stroke-width="1" fill="none" fill-rule="evenodd">
        <g id="07" transform="translate(-9.000000, -9.000000)" fill="#FFFFFF" fill-rule="nonzero">
            <path d="M25,31 C23.8,31 22.7,30.7 21.8,30.1 C21.2,30.2 20.6,30.3 20,30.3 C14.4,30.3 9.9,25.7 9.9,20.1 C9.9,19.6 9.9,19 10,18.5 C9.4,17.5 9,16.4 9,15.2 C9,11.7 11.7,9 15,9 C16.2,9 17.3,9.4 18.3,10 C18.8,9.9 19.4,9.9 19.9,9.9 C25.5,9.8 30,14.4 30,20 C30,20.5 30,20.9 29.9,21.4 C30.6,22.4 30.9,23.6 30.9,24.8 C31,28.3 28.3,31 25,31 Z M18.7,18.4 C15.8,17.7 17.4,15.1 19.7,15.2 C22,15.2 23.2,17.7 24.2,17.6 C25.2,17.5 26.1,15.9 24.5,14.5 C23.1,13.3 21.3,12.6 18.5,12.8 C16.3,13 14.3,14.4 14,17.2 C13.7,20 17,21.4 19.5,21.8 C21.3,22.1 23.7,22.9 22.3,24.7 C21,26.3 18.4,25.3 17.7,24.9 C17,24.5 16.3,22.9 15,23 C13.7,23.1 13.1,24.8 14.7,26.2 C16.1,27.5 17.6,28.2 20.8,28.1 C24,27.9 26.9,25 25.8,22.3 C24.7,19.4 21.6,19.1 18.7,18.4 Z" id="social-skype"></path>
        </g>
    </g>
</svg>