<?xml version="1.0" encoding="UTF-8"?>
<svg width="20px" height="16px" viewBox="0 0 20 16" version="1.1" xmlns="http://www.w3.org/2000/svg" xmlns:xlink="http://www.w3.org/1999/xlink">
    <!-- Generator: Sketch 49.2 (51160) - http://www.bohemiancoding.com/sketch -->
    <title>social-gmail</title>
    <desc>Created with Sketch.</desc>
    <defs></defs>
    <g id="Page-1" stroke="none" stroke-width="1" fill="none" fill-rule="evenodd">
        <g id="09" transform="translate(-10.000000, -12.000000)" fill="#FFFFFF" fill-rule="nonzero">
            <path d="M30,26 C30,27.1 29.1,28 28,28 L12,28 C10.9,28 10,27.1 10,26 L10,14 C10,12.9 10.9,12 12,12 L28,12 C29.1,12 30,12.9 30,14 L30,26 Z M20,18.2 L13.2,14 L12,14 L12,26 L14,26 L14,17.2 L20,21 L26,17.2 L26,26 L28,26 L28,14 L26.8,14 L20,18.2 Z" id="social-gmail"></path>
        </g>
    </g>
</svg>