<?xml version="1.0" encoding="UTF-8"?>
<svg width="25px" height="25px" viewBox="0 0 25 25" version="1.1" xmlns="http://www.w3.org/2000/svg" xmlns:xlink="http://www.w3.org/1999/xlink">
    <!-- Generator: Sketch 49.2 (51160) - http://www.bohemiancoding.com/sketch -->
    <title>social-whatsup</title>
    <desc>Created with Sketch.</desc>
    <defs></defs>
    <g id="Page-1" stroke="none" stroke-width="1" fill="none" fill-rule="evenodd">
        <g id="02" transform="translate(-8.000000, -7.000000)" fill="#FFFFFF" fill-rule="nonzero">
            <g id="social-whatsup" transform="translate(8.000000, 7.000000)">
                <path d="M12.4,24.6 C10.4,24.6 8.4,24.1 6.7,23.1 L0.3,24.8 L2,18.6 C0.9,16.8 0.4,14.7 0.4,12.6 C0.4,6 5.8,0.6 12.4,0.6 C15.6,0.6 18.6,1.9 20.9,4.1 C23.2,6.4 24.4,9.4 24.4,12.6 C24.4,19.2 19,24.6 12.4,24.6 Z M12.4,2.6 C6.9,2.6 2.4,7.1 2.4,12.6 C2.4,14.5 2.9,16.3 3.9,17.9 L4.1,18.3 L3.1,22 L6.9,21 L7.3,21.2 C8.8,22.1 10.6,22.6 12.4,22.6 C17.9,22.6 22.4,18.1 22.4,12.6 C22.4,9.9 21.4,7.4 19.5,5.5 C17.6,3.6 15.1,2.6 12.4,2.6 Z" id="Combined-Shape"></path>
                <path d="M18.3,16.9 C18,17.6 16.9,18.2 16.3,18.3 C15.8,18.4 15.1,18.4 14.4,18.2 C14,18.1 13.4,17.9 12.7,17.6 C9.7,16.3 7.7,13.3 7.6,13.1 C7.4,12.9 6.4,11.5 6.4,10 C6.4,8.5 7.2,7.8 7.5,7.5 C7.8,7.2 8.1,7.1 8.3,7.1 C8.5,7.1 8.7,7.1 8.9,7.1 C9.1,7.1 9.3,7 9.6,7.6 C9.9,8.2 10.5,9.7 10.5,9.8 C10.6,10 10.6,10.1 10.5,10.3 C10.4,10.5 10.3,10.6 10.2,10.8 C10,11 9.9,11.2 9.7,11.3 C9.5,11.4 9.4,11.6 9.6,11.9 C9.8,12.2 10.4,13.2 11.3,14 C12.4,15 13.4,15.3 13.7,15.5 C14,15.7 14.2,15.6 14.4,15.4 C14.6,15.2 15.2,14.5 15.4,14.2 C15.6,13.9 15.8,13.9 16.1,14 C16.4,14.1 17.9,14.8 18.2,15 C18.5,15.2 18.7,15.2 18.8,15.4 C18.6,15.5 18.6,16.2 18.3,16.9 Z" id="Shape"></path>
            </g>
        </g>
    </g>
</svg>