<?xml version="1.0" encoding="UTF-8"?>
<svg width="25px" height="20px" viewBox="0 0 25 20" version="1.1" xmlns="http://www.w3.org/2000/svg" xmlns:xlink="http://www.w3.org/1999/xlink">
    <!-- Generator: Sketch 49.2 (51160) - http://www.bohemiancoding.com/sketch -->
    <title>social-tg</title>
    <desc>Created with Sketch.</desc>
    <defs></defs>
    <g id="Page-1" stroke="none" stroke-width="1" fill="none" fill-rule="evenodd">
        <g id="01" transform="translate(-5.000000, -10.000000)" fill="#FFFFFF" fill-rule="nonzero">
            <path d="M29.6,13.3 C28.5,18.5 27.4,23.7 26.3,28.8 C26,30 25.2,30.4 24.1,29.6 C22.4,28.4 20.7,27.1 19,25.8 C18.9,25.7 18.8,25.7 18.7,25.6 C17.8,26.5 16.9,27.4 16,28.3 C15.7,28.6 15.3,28.8 14.9,28.8 C14.6,28.8 14.4,28.6 14.3,28.4 C13.6,26.3 12.9,24.1 12.2,22 C12.1,21.8 12,21.7 11.8,21.6 C10.2,21.1 8.5,20.6 6.9,20.1 C6.6,20 6.4,19.9 6.2,19.8 C5.9,19.6 5.8,19.2 6.1,18.9 C6.4,18.7 6.7,18.4 7.1,18.3 C9.1,17.5 11.1,16.8 13.1,16 C18.2,14.1 23.3,12.1 28.4,10.2 C29.4,9.8 30.1,10.4 30,11.4 C29.9,12 29.8,12.6 29.6,13.3 Z M24.7,13.9 C20.9,16.3 17.1,18.7 13.2,21.1 C13,21.2 12.9,21.3 13,21.6 C13.3,22.4 13.5,23.2 13.8,24 C14.2,25.1 14.5,26.2 14.9,27.2 C14.9,27.2 14.9,27.2 15,27.2 L15,27.1 C15.1,25.9 15.2,24.8 15.3,23.6 C15.3,23.3 15.4,23.2 15.6,23 C17.2,21.6 18.7,20.2 20.3,18.8 C22,17.2 23.8,15.7 25.5,14.1 C25.6,14 25.7,13.8 25.7,13.7 C25.5,13.7 25.4,13.6 25.2,13.7 C25.1,13.7 24.9,13.8 24.7,13.9 Z" id="social-tg"></path>
        </g>
    </g>
</svg>