<?xml version="1.0" encoding="UTF-8"?>
<svg width="22px" height="24px" viewBox="0 0 22 24" version="1.1" xmlns="http://www.w3.org/2000/svg" xmlns:xlink="http://www.w3.org/1999/xlink">
    <!-- Generator: Sketch 49.2 (51160) - http://www.bohemiancoding.com/sketch -->
    <title>social-sms</title>
    <desc>Created with Sketch.</desc>
    <defs></defs>
    <g id="Page-1" stroke="none" stroke-width="1" fill="none" fill-rule="evenodd">
        <g id="06" transform="translate(-9.000000, -9.000000)" fill="#FFFFFF" fill-rule="nonzero">
            <path d="M20,33 L20,29 C13.9,29 9,24.5 9,19 C9,13.5 13.9,9 20,9 C26.1,9 31,13.5 31,19 C31,27.6 20,33 20,33 Z M26,16.9 C26.2,16.9 26.4,17 26.6,17.1 C26.7,17.3 26.8,17.5 26.8,17.8 L27.9,17.8 C27.9,17.3 27.7,16.8 27.4,16.5 C27,16.2 26.6,16 26,16 C25.5,16 25,16.2 24.7,16.5 C24.4,16.8 24.2,17.2 24.2,17.7 C24.2,18.2 24.4,18.5 24.7,18.8 C25,19 25.5,19.3 26.1,19.5 C26.4,19.6 26.6,19.8 26.7,19.9 C26.8,20.1 26.9,20.3 26.9,20.5 C26.9,20.7 26.8,20.9 26.7,21 C26.5,21.1 26.3,21.2 26.1,21.2 C25.8,21.2 25.5,21.2 25.4,21 C25.3,20.8 25.2,20.6 25.2,20.2 L24.1,20.2 C24.1,20.8 24.3,21.3 24.7,21.6 C25.1,21.9 25.5,22.1 26.1,22.1 C26.6,22.1 27.1,21.9 27.4,21.6 C27.7,21.3 27.9,20.9 27.9,20.4 C27.9,19.9 27.8,19.5 27.5,19.2 C27.2,18.9 26.8,18.7 26.2,18.5 C25.9,18.4 25.6,18.2 25.5,18.1 C25.4,18 25.3,17.8 25.3,17.6 C25.3,17.4 25.4,17.2 25.5,17.1 C25.6,17 25.8,16.9 26,16.9 Z M14,16.9 C14.2,16.9 14.4,17 14.6,17.1 C14.7,17.3 14.8,17.5 14.8,17.8 L15.9,17.8 C15.9,17.3 15.7,16.8 15.4,16.5 C15,16.2 14.6,16 14,16 C13.5,16 13,16.2 12.6,16.5 C12.3,16.8 12.1,17.2 12.1,17.7 C12.1,18.1 12.3,18.5 12.7,18.8 C13,19 13.5,19.3 14.1,19.5 C14.4,19.6 14.6,19.8 14.7,19.9 C14.8,20.1 14.9,20.3 14.9,20.5 C14.9,20.7 14.8,20.9 14.7,21 C14.5,21.1 14.3,21.2 14.1,21.2 C13.8,21.2 13.5,21.2 13.4,21 C13.3,20.8 13.2,20.6 13.2,20.2 L12.1,20.2 C12.1,20.8 12.3,21.3 12.7,21.6 C13.1,21.9 13.5,22.1 14.1,22.1 C14.6,22.1 15.1,21.9 15.4,21.7 C15.7,21.4 15.9,21 15.9,20.5 C15.9,20 15.8,19.6 15.5,19.3 C15.2,19 14.8,18.8 14.2,18.6 C13.9,18.5 13.6,18.3 13.5,18.2 C13.4,18.1 13.3,17.9 13.3,17.7 C13.3,17.4 13.3,17.3 13.5,17.1 C13.6,17 13.8,16.9 14,16.9 Z M20,20.5 L18.9,16.1 L17.4,16.1 L17.4,22 L18.5,22 L18.5,18.3 L19.6,22 L20.4,22 L21.5,18.3 L21.5,22 L22.6,22 L22.6,16.1 L21.1,16.1 L20,20.5 Z" id="social-sms"></path>
        </g>
    </g>
</svg>