<?xml version="1.0" encoding="UTF-8"?>
<svg width="22px" height="22px" viewBox="0 0 22 22" version="1.1" xmlns="http://www.w3.org/2000/svg" xmlns:xlink="http://www.w3.org/1999/xlink">
    <!-- Generator: Sketch 49.2 (51160) - http://www.bohemiancoding.com/sketch -->
    <title>social-viber</title>
    <desc>Created with Sketch.</desc>
    <defs></defs>
    <g id="Page-1" stroke="none" stroke-width="1" fill="none" fill-rule="evenodd">
        <g id="04" transform="translate(-9.000000, -10.000000)" fill="#FFFFFF" fill-rule="nonzero">
            <path d="M20,29 L18.9,29 L16.7,31.5 C16.4,31.8 16,32 15.5,32 C14.7,32 14,31.3 14,30.5 L14,28.3 C10.6,27.1 9,24.2 9,19.6 C9,10.8 14.7,10.1 20,10.1 C25.3,10.1 31,10.8 31,19.6 C31,28.3 25.3,29 20,29 Z M20,16 C21.7,16 23,17.3 23,19 C23,19.3 23.2,19.5 23.5,19.5 C23.8,19.5 24,19.3 24,19 C24,16.8 22.2,15 20,15 C19.7,15 19.5,15.2 19.5,15.5 C19.5,15.8 19.7,16 20,16 Z M24.7,22.1 L22.7,21.1 C22.5,21 22.4,21 22.2,21 C21.5,21.1 20.8,21.5 20.4,22 C19.7,21.7 19,21.3 18.4,20.7 C17.8,20.1 17.4,19.4 17.1,18.7 C17.6,18.2 18.4,17.1 18,16.3 C17.6,15.5 17,14.3 17,14.3 C16.9,14.1 16.7,14 16.5,14 L15.5,14 C14,14.3 13,15.5 13,17 C13,18.6 14.9,21.6 16.1,22.8 C17.4,24.1 20.4,25.9 22,25.9 C23.5,25.9 24.8,24.9 25,23.4 L25,22.4 C25,22.3 24.9,22.1 24.7,22.1 Z M20,18 C20.6,18 21,18.4 21,19 C21,19.3 21.2,19.5 21.5,19.5 C21.8,19.5 22,19.3 22,19 C22,17.9 21.1,17 20,17 C19.7,17 19.5,17.2 19.5,17.5 C19.5,17.8 19.7,18 20,18 Z M20,13 C19.7,13 19.5,13.2 19.5,13.5 C19.5,13.8 19.7,14 20,14 C22.8,14 25,16.2 25,19 C25,19.3 25.2,19.5 25.5,19.5 C25.8,19.5 26,19.3 26,19 C26,15.7 23.3,13 20,13 Z" id="social-viber"></path>
        </g>
    </g>
</svg>