<?xml version="1.0" encoding="UTF-8"?>
<svg width="27px" height="16px" viewBox="0 0 27 16" version="1.1" xmlns="http://www.w3.org/2000/svg" xmlns:xlink="http://www.w3.org/1999/xlink">
    <!-- Generator: Sketch 49.2 (51160) - http://www.bohemiancoding.com/sketch -->
    <title>social-vk</title>
    <desc>Created with Sketch.</desc>
    <defs></defs>
    <g id="Page-1" stroke="none" stroke-width="1" fill="none" fill-rule="evenodd">
        <g id="05" transform="translate(-6.000000, -13.000000)" fill="#FFFFFF" fill-rule="nonzero">
            <path d="M31.5,28.8 L28,28.8 C28,28.8 27.2,28.9 26.3,28.3 C25,27.4 23.8,25.1 22.8,25.4 C21.8,25.7 21.9,27.8 21.9,27.8 C21.9,27.8 21.9,28.2 21.7,28.5 C21.5,28.8 21,28.8 21,28.8 L19.4,28.8 C19.4,28.8 15.9,29 12.9,25.8 C9.6,22.3 6.6,15.5 6.6,15.5 C6.6,15.5 6.4,15 6.6,14.8 C6.8,14.6 7.4,14.5 7.4,14.5 L11.2,14.5 C11.2,14.5 11.6,14.6 11.8,14.7 C12,14.9 12.1,15.1 12.1,15.1 C12.1,15.1 12.7,16.6 13.5,18 C15.1,20.7 15.8,21.3 16.3,21 C17.1,20.6 16.8,17.2 16.8,17.2 C16.8,17.2 16.8,16 16.4,15.4 C16.1,15 15.5,14.8 15.2,14.8 C15,14.8 15.3,14.3 15.8,14.1 C16.5,13.8 17.7,13.8 19.1,13.8 C20.2,13.8 20.5,13.9 20.9,14 C22.2,14.3 21.8,15.5 21.8,18.4 C21.8,19.3 21.6,20.6 22.3,21.1 C22.6,21.3 23.3,21.1 25,18.1 C25.8,16.7 26.5,15 26.5,15 C26.5,15 26.6,14.7 26.8,14.6 C27,14.5 27.3,14.5 27.3,14.5 L31.2,14.5 C31.2,14.5 32.4,14.4 32.6,14.9 C32.8,15.5 32.2,16.8 30.5,18.9 C27.9,22.4 27.6,22.1 29.8,24.1 C31.9,26.1 32.3,27 32.4,27.1 C33.3,28.7 31.5,28.8 31.5,28.8 Z" id="social-vk"></path>
        </g>
    </g>
</svg>