<?xml version="1.0" encoding="UTF-8"?>
<svg width="40px" height="39px" viewBox="0 0 40 39" version="1.1" xmlns="http://www.w3.org/2000/svg" xmlns:xlink="http://www.w3.org/1999/xlink">
    <!-- Generator: Sketch 49.2 (51160) - http://www.bohemiancoding.com/sketch -->
    <title>star</title>
    <desc>Created with Sketch.</desc>
    <defs></defs>
    <g id="Page-1" stroke="none" stroke-width="1" fill="none" fill-rule="evenodd">
        <g id="10" fill="#FFD925">
            <path d="M38.4,14 L25.5,14 L21.5,2 C21.3,1.3 20.7,0.8 19.9,0.8 C19.2,0.8 18.5,1.3 18.3,2 L14.4,14 L1.6,14 C0.7,14 0,14.7 0,15.6 C0,16.1 0.3,16.6 0.7,16.9 C1,17.1 11.1,24.4 11.1,24.4 C11.1,24.4 7.2,36.3 7.1,36.5 C7.1,36.8 7,36.9 7,37.1 C7,38 7.7,38.7 8.6,38.7 C8.9,38.7 9.3,38.6 9.5,38.4 L20,30.9 C20,30.9 30.2,38.2 30.4,38.4 C30.7,38.6 31,38.7 31.3,38.7 C32.2,38.7 32.9,38 32.9,37.1 C32.9,36.9 32.9,36.7 32.8,36.5 C32.7,36.3 28.8,24.4 28.8,24.4 C28.8,24.4 39,17.1 39.3,17 C39.7,16.7 40,16.2 40,15.7 C40,14.7 39.3,14 38.4,14 Z" id="star"></path>
        </g>
    </g>
</svg>