<?xml version="1.0" encoding="utf-8"?>
<!-- Generator: Adobe Illustrator 21.1.0, SVG Export Plug-In . SVG Version: 6.00 Build 0)  -->
<svg version="1.1" id="Shape_9_copy_1_" xmlns="http://www.w3.org/2000/svg" xmlns:xlink="http://www.w3.org/1999/xlink" x="0px"
	 y="0px" viewBox="0 0 40 40" style="enable-background:new 0 0 40 40;" xml:space="preserve">
<style type="text/css">
	.st0{fill:#4DC247;}
	.st1{fill:#FFFFFF;}
</style>
<path class="st0" d="M20,0C8.9,0,0,9,0,20s9,20,20,20c11.1,0,20-9,20-20S31,0,20,0z"/>
<path class="st1" d="M20.4,31.6L20.4,31.6c-2,0-4-0.5-5.7-1.5l-6.4,1.7l1.7-6.2c-1.1-1.8-1.6-3.9-1.6-6c0-6.6,5.4-12,12-12
	c3.2,0,6.2,1.3,8.5,3.5c2.3,2.3,3.5,5.3,3.5,8.5C32.4,26.2,27,31.6,20.4,31.6z"/>
<path class="st0" d="M20.4,9.6c-5.5,0-10,4.5-10,10c0,1.9,0.5,3.7,1.5,5.3l0.2,0.4l-1,3.7l3.8-1l0.4,0.2c1.5,0.9,3.3,1.4,5.1,1.4
	l0,0c5.5,0,10-4.5,10-10c0-2.7-1-5.2-2.9-7.1S23.1,9.6,20.4,9.6z"/>
<path class="st1" d="M26.3,23.9c-0.3,0.7-1.4,1.3-2,1.4c-0.5,0.1-1.2,0.1-1.9-0.1c-0.4-0.1-1-0.3-1.7-0.6c-3-1.3-5-4.3-5.1-4.5
	c-0.2-0.2-1.2-1.6-1.2-3.1s0.8-2.2,1.1-2.5s0.6-0.4,0.8-0.4s0.4,0,0.6,0s0.4-0.1,0.7,0.5c0.3,0.6,0.9,2.1,0.9,2.2
	c0.1,0.2,0.1,0.3,0,0.5s-0.2,0.3-0.3,0.5c-0.2,0.2-0.3,0.4-0.5,0.5s-0.3,0.3-0.1,0.6c0.2,0.3,0.8,1.3,1.7,2.1c1.1,1,2.1,1.3,2.4,1.5
	s0.5,0.1,0.7-0.1s0.8-0.9,1-1.2c0.2-0.3,0.4-0.3,0.7-0.2c0.3,0.1,1.8,0.8,2.1,1c0.3,0.2,0.5,0.2,0.6,0.4
	C26.6,22.5,26.6,23.2,26.3,23.9z"/>
</svg>
