<?xml version="1.0" encoding="utf-8"?>
<!-- Generator: Adobe Illustrator 21.1.0, SVG Export Plug-In . SVG Version: 6.00 Build 0)  -->
<svg version="1.1" id="Shape_19_copy_1_" xmlns="http://www.w3.org/2000/svg" xmlns:xlink="http://www.w3.org/1999/xlink" x="0px"
	 y="0px" viewBox="0 0 40 40" style="enable-background:new 0 0 40 40;" xml:space="preserve">
<style type="text/css">
	.st0{fill:#7B519D;}
	.st1{fill:#FFFFFF;}
</style>
<path class="st0" d="M20,0C9,0,0,9,0,20s9,20,20,20s20-9,20-20S31,0,20,0z"/>
<path class="st1" d="M20,29h-1.1l-2.2,2.5C16.4,31.8,16,32,15.5,32c-0.8,0-1.5-0.7-1.5-1.5v-2.2c-3.4-1.2-5-4.1-5-8.7
	c0-8.8,5.7-9.5,11-9.5s11,0.7,11,9.5C31,28.3,25.3,29,20,29z"/>
<path class="st0" d="M20,16c1.7,0,3,1.3,3,3c0,0.3,0.2,0.5,0.5,0.5S24,19.3,24,19c0-2.2-1.8-4-4-4c-0.3,0-0.5,0.2-0.5,0.5
	S19.7,16,20,16z"/>
<path class="st0" d="M24.7,22.1l-2-1C22.5,21,22.4,21,22.2,21c-0.7,0.1-1.4,0.5-1.8,1c-0.7-0.3-1.4-0.7-2-1.3c-0.6-0.6-1-1.3-1.3-2
	c0.5-0.5,1.3-1.6,0.9-2.4c-0.4-0.8-1-2-1-2c-0.1-0.2-0.3-0.3-0.5-0.3h-1C14,14.3,13,15.5,13,17c0,1.6,1.9,4.6,3.1,5.8
	c1.3,1.3,4.3,3.1,5.9,3.1c1.5,0,2.8-1,3-2.5v-1C25,22.3,24.9,22.1,24.7,22.1z"/>
<path class="st0" d="M20,18c0.6,0,1,0.4,1,1c0,0.3,0.2,0.5,0.5,0.5S22,19.3,22,19c0-1.1-0.9-2-2-2c-0.3,0-0.5,0.2-0.5,0.5
	S19.7,18,20,18z"/>
<path class="st0" d="M20,13c-0.3,0-0.5,0.2-0.5,0.5S19.7,14,20,14c2.8,0,5,2.2,5,5c0,0.3,0.2,0.5,0.5,0.5S26,19.3,26,19
	C26,15.7,23.3,13,20,13z"/>
</svg>
