<?xml version="1.0" encoding="utf-8"?>
<!-- Generator: Adobe Illustrator 21.1.0, SVG Export Plug-In . SVG Version: 6.00 Build 0)  -->
<svg version="1.1" id="Shape_12_copy_1_" xmlns="http://www.w3.org/2000/svg" xmlns:xlink="http://www.w3.org/1999/xlink" x="0px"
	 y="0px" viewBox="0 0 40 40" style="enable-background:new 0 0 40 40;" xml:space="preserve">
<style type="text/css">
	.st0{fill:#14C09B;}
	.st1{fill:#FFFFFF;}
</style>
<path class="st0" d="M20,0C9,0,0,9,0,20s9,20,20,20s20-9,20-20S31,0,20,0z"/>
<path class="st1" d="M20,33v-4c-6.1,0-11-4.5-11-10S13.9,9,20,9s11,4.5,11,10C31,27.6,20,33,20,33z"/>
<path class="st0" d="M26,16.9c0.2,0,0.4,0.1,0.6,0.2c0.1,0.2,0.2,0.4,0.2,0.7h1.1c0-0.5-0.2-1-0.5-1.3C27,16.2,26.6,16,26,16
	c-0.5,0-1,0.2-1.3,0.5s-0.5,0.7-0.5,1.2s0.2,0.8,0.5,1.1c0.3,0.2,0.8,0.5,1.4,0.7c0.3,0.1,0.5,0.3,0.6,0.4c0.1,0.2,0.2,0.4,0.2,0.6
	s-0.1,0.4-0.2,0.5c-0.2,0.1-0.4,0.2-0.6,0.2c-0.3,0-0.6,0-0.7-0.2s-0.2-0.4-0.2-0.8h-1.1c0,0.6,0.2,1.1,0.6,1.4s0.8,0.5,1.4,0.5
	c0.5,0,1-0.2,1.3-0.5s0.5-0.7,0.5-1.2s-0.1-0.9-0.4-1.2c-0.3-0.3-0.7-0.5-1.3-0.7c-0.3-0.1-0.6-0.3-0.7-0.4s-0.2-0.3-0.2-0.5
	s0.1-0.4,0.2-0.5C25.6,17,25.8,16.9,26,16.9z"/>
<path class="st0" d="M14,16.9c0.2,0,0.4,0.1,0.6,0.2c0.1,0.2,0.2,0.4,0.2,0.7h1.1c0-0.5-0.2-1-0.5-1.3C15,16.2,14.6,16,14,16
	c-0.5,0-1,0.2-1.4,0.5c-0.3,0.3-0.5,0.7-0.5,1.2c0,0.4,0.2,0.8,0.6,1.1c0.3,0.2,0.8,0.5,1.4,0.7c0.3,0.1,0.5,0.3,0.6,0.4
	c0.1,0.2,0.2,0.4,0.2,0.6s-0.1,0.4-0.2,0.5c-0.2,0.1-0.4,0.2-0.6,0.2c-0.3,0-0.6,0-0.7-0.2c-0.1-0.2-0.2-0.4-0.2-0.8h-1.1
	c0,0.6,0.2,1.1,0.6,1.4c0.4,0.3,0.8,0.5,1.4,0.5c0.5,0,1-0.2,1.3-0.4c0.3-0.3,0.5-0.7,0.5-1.2s-0.1-0.9-0.4-1.2
	c-0.3-0.3-0.7-0.5-1.3-0.7c-0.3-0.1-0.6-0.3-0.7-0.4c-0.1-0.1-0.2-0.3-0.2-0.5c0-0.3,0-0.4,0.2-0.6C13.6,17,13.8,16.9,14,16.9z"/>
<polygon class="st0" points="20,20.5 18.9,16.1 17.4,16.1 17.4,22 18.5,22 18.5,18.3 19.6,22 20.4,22 21.5,18.3 21.5,22 22.6,22 
	22.6,16.1 21.1,16.1 "/>
</svg>
