<?xml version="1.0" encoding="utf-8"?>
<!-- Generator: Adobe Illustrator 21.1.0, SVG Export Plug-In . SVG Version: 6.00 Build 0)  -->
<svg version="1.1" id="Shape_13_copy_1_" xmlns="http://www.w3.org/2000/svg" xmlns:xlink="http://www.w3.org/1999/xlink" x="0px"
	 y="0px" viewBox="0 0 40 40" style="enable-background:new 0 0 40 40;" xml:space="preserve">
<style type="text/css">
	.st0{fill:#00AEF3;}
	.st1{fill:#FFFFFF;}
</style>
<path class="st0" d="M20,0C9,0,0,9,0,20s9,20,20,20s20-9,20-20S31,0,20,0z"/>
<path class="st1" d="M25,31c-1.2,0-2.3-0.3-3.2-0.9c-0.6,0.1-1.2,0.2-1.8,0.2c-5.6,0-10.1-4.6-10.1-10.2c0-0.5,0-1.1,0.1-1.6
	c-0.6-1-1-2.1-1-3.3C9,11.7,11.7,9,15,9c1.2,0,2.3,0.4,3.3,1c0.5-0.1,1.1-0.1,1.6-0.1C25.5,9.8,30,14.4,30,20c0,0.5,0,0.9-0.1,1.4
	c0.7,1,1,2.2,1,3.4C31,28.3,28.3,31,25,31z"/>
<path class="st0" d="M18.7,18.4c-2.9-0.7-1.3-3.3,1-3.2c2.3,0,3.5,2.5,4.5,2.4s1.9-1.7,0.3-3.1c-1.4-1.2-3.2-1.9-6-1.7
	c-2.2,0.2-4.2,1.6-4.5,4.4s3,4.2,5.5,4.6c1.8,0.3,4.2,1.1,2.8,2.9c-1.3,1.6-3.9,0.6-4.6,0.2s-1.4-2-2.7-1.9s-1.9,1.8-0.3,3.2
	c1.4,1.3,2.9,2,6.1,1.9c3.2-0.2,6.1-3.1,5-5.8C24.7,19.4,21.6,19.1,18.7,18.4z"/>
</svg>
