<?xml version="1.0" encoding="UTF-8"?><!DOCTYPE svg PUBLIC "-//W3C//DTD SVG 1.1//EN" "http://www.w3.org/Graphics/SVG/1.1/DTD/svg11.dtd"><svg xmlns="http://www.w3.org/2000/svg"><symbol id="ico-call" viewBox="0 0 36 36">
    <title>
        call
    </title>
    <path d="M35.8 28.9l-.2-.5c-.4-1.2-1.8-2.5-3-2.8L28 24.2c-1.3-.3-3 .1-4 1l-1.7 1.7c-6.1-1.6-10.8-6.4-12.5-12.5l1.7-1.7c.9-.9 1.4-2.7 1-3.9l-1.3-4.6C11 3 9.7 1.7 8.5 1.2L8 1.1c-1.2-.4-3 0-3.9.9L1.6 4.5c-.5.4-.7 1.7-.7 1.7-.1 7.9 3 15.6 8.6 21.2s13.2 8.7 21.1 8.6c0 0 1.3-.3 1.8-.7l2.5-2.5c.9-.9 1.3-2.7.9-3.9z" fill-rule="evenodd"/>
</symbol><symbol id="ico-close" viewBox="0 0 14 14">
    <title>
        close
    </title>
    <path d="M14 1l-1-1-6 6-6-6-1 1 6 6-6 6 1 1 6-6 6 6 1-1-6-6z" fill-rule="evenodd"/>
</symbol><symbol id="ico-logo" viewBox="0 0 98 96">
    <title>
        logo
    </title>
    <g fill-rule="evenodd">
        <path d="M69.5.9C67 .9 65 3 65 5.5V32l3 3V5.5c0-.8.7-1.5 1.5-1.5s1.5.7 1.5 1.5V38l3 3V5.5C74 3 72 .9 69.5.9z"/>
        <path d="M30 17v29.5c0 .8-.7 1.5-1.5 1.5s-1.5-.7-1.5-1.5V14l-3-3v35.5c0 2.5 2 4.5 4.5 4.5s4.5-2 4.5-4.5V20l-3-3z"/>
        <path d="M7.8 76.2V78h5.1v-1.8h-1.4v-9.4h1.4V65H7.8v1.8h1.4v3.3H4.1v-3.3h1.4V65H.3v1.8h1.4v9.4H.3V78h5.1v-1.8H4.1v-4h5.2v4H7.8zm17.9-.1c.6-.6 1-1.3 1.3-2.1.3-.8.5-1.6.5-2.5 0-1-.2-1.9-.6-2.8-.4-.9-.9-1.6-1.7-2.3-.6-.5-1.3-1-2.1-1.2-.8-.3-1.6-.4-2.5-.4-1.9 0-3.6.6-4.9 1.9-1.3 1.3-1.9 2.9-1.9 4.8s.6 3.5 1.9 4.8c1.3 1.3 2.9 1.9 4.8 1.9 1 0 1.9-.2 2.8-.5 1-.3 1.8-.9 2.4-1.6zm-8.1-1.3c-.8-.9-1.2-1.9-1.2-3.2 0-1.3.4-2.4 1.2-3.2.8-.9 1.9-1.3 3.1-1.3 1.2 0 2.3.4 3.1 1.3.8.9 1.2 1.9 1.2 3.3 0 1.3-.4 2.4-1.2 3.3-.8.9-1.9 1.3-3.1 1.3-1.2-.2-2.3-.7-3.1-1.5zm19.3 2.3c.8-.6 1.2-1.6 1.2-2.8 0-.8-.2-1.5-.7-2.1-.5-.6-1.2-.9-2.1-1.2.7-.2 1.3-.5 1.7-1 .4-.4.5-1 .5-1.7 0-1.1-.4-1.9-1.1-2.4-.7-.6-1.8-.8-3.2-.8h-4.7v1.8h1.4v9.4h-1.4V78h4.7c1.6 0 2.9-.3 3.7-.9zm-4.7-10.3h1c.6 0 1.1.1 1.5.4.3.3.5.7.5 1.3 0 .5-.2.9-.5 1.2-.4.3-.8.4-1.5.4h-1v-3.3zm0 5.1h1c.9 0 1.6.2 2 .5.4.3.6.9.6 1.6 0 .8-.2 1.3-.6 1.6-.4.3-1.1.5-2 .5h-1v-4.2zm21-.4c0-1-.2-1.9-.6-2.8-.4-.9-.9-1.6-1.7-2.3-.6-.5-1.3-1-2.1-1.2-.8-.3-1.6-.4-2.5-.4-1.9 0-3.6.6-4.9 1.9-1.3 1.3-1.9 2.9-1.9 4.8s.6 3.5 1.9 4.8c1.3 1.3 2.9 1.9 4.8 1.9 1 0 1.9-.2 2.8-.5.8-.4 1.6-.9 2.2-1.6.6-.6 1-1.3 1.3-2.1.6-.8.7-1.6.7-2.5zm-3.7 3.3c-.8.9-1.9 1.3-3.1 1.3-1.2 0-2.3-.4-3.1-1.3-.8-.9-1.2-1.9-1.2-3.2 0-1.3.4-2.4 1.2-3.2.8-.9 1.9-1.3 3.1-1.3 1.2 0 2.3.4 3.1 1.3.8.9 1.2 1.9 1.2 3.3 0 1.1-.4 2.2-1.2 3.1zm9.3-1.9h-4.5v1.9h4.5v-1.9zm8.4-6.1h1.4v3.3h-5.2v-3.3h1.4V65h-5.1v1.8h1.4v9.4h-1.4V78h5.1v-1.8h-1.4v-4h5.2v4h-1.4V78h5.1v-1.8h-1.4v-9.4h1.4V65h-5.1v1.8zm12.9 11.5c1.4 0 2.6-.4 3.6-1.2 1-.8 1.7-1.9 2.1-3.3h-2.3c-.4.8-.9 1.4-1.4 1.7-.6.4-1.2.5-2 .5-1.3 0-2.3-.4-3.1-1.3-.8-.8-1.2-1.9-1.2-3.3s.4-2.5 1.2-3.3c.8-.8 1.8-1.3 3.1-1.3.8 0 1.5.2 2.1.6.6.4 1 1 1.2 1.8h1.9V65h-1.9v1.1c-.4-.4-.9-.8-1.5-1-.6-.2-1.3-.3-2.1-.3-1.9 0-3.5.6-4.7 1.9-1.2 1.3-1.9 2.9-1.9 4.8s.6 3.5 1.9 4.8c1.4 1.3 3.1 2 5 2zm16.7-2.1l-3.7-5.1 3.7-4.3h.9V65h-4.9v1.8h1.4L90.6 71v-4.2H92V65h-5.1v1.8h1.4v9.4h-1.4V78H92v-1.8h-1.4v-4.8l3.5 4.8h-1.3V78H98v-1.8h-1.2zM4.6 90l-1.9 5h.7l.6-1.5h2l.6 1.5h.8l-2.1-5h-.7zm-.5 2.9l.6-1.5c.1-.3.2-.6.3-1 .1.3.2.6.4 1l.5 1.4H4.1v.1zM7.9 95h.7v-4.4h2.6V90H7.9v5zm4.4-2.3h2.8v-.6h-2.8v-1.5h3V90h-3.6v5h3.7v-.6h-3.1v-1.7zm7.3-.7H17v-2h-.7v5h.7v-2.4h2.6V95h.7v-5h-.7v2zm1.4-1.4h1.7V95h.7v-4.4H25V90h-4v.6zm7.7 3.6c-.3.2-.6.3-.9.3-.3 0-.6-.1-.9-.2-.3-.1-.5-.4-.6-.7-.1-.3-.2-.7-.2-1.1 0-.3.1-.7.2-1 .1-.3.3-.6.5-.7.2-.1.6-.3 1-.3.3 0 .6.1.8.2.2.1.4.4.5.8l.7-.2c-.1-.5-.4-.8-.7-1.1-.3-.3-.8-.4-1.3-.4-.4 0-.8.1-1.2.3-.4.2-.7.5-.9.9-.2.4-.3.8-.3 1.4 0 .5.1.9.3 1.3.2.4.4.7.8 1 .4.3.8.3 1.3.3s1-.1 1.3-.4c.3-.3.6-.7.8-1.2l-.7-.2c0 .5-.2.8-.5 1zm1.7-3.6H32V95h.7v-4.4h1.7V90h-4v.6zm7.4 1.7c.2-.1.4-.3.5-.5.1-.2.2-.4.2-.6 0-.2-.1-.5-.2-.7-.1-.2-.3-.4-.5-.5H35v5h1.9c.3 0 .6 0 .8-.1.2-.1.4-.1.5-.2.1-.1.3-.3.4-.5.1-.2.1-.4.1-.7 0-.3-.1-.5-.2-.8-.1-.1-.4-.3-.7-.4zm-2.2-1.7h1c.4 0 .6 0 .8.1.1 0 .3.1.3.3.1.1.1.3.1.4 0 .2 0 .3-.1.4-.1.1-.2.2-.3.2-.1 0-.3.1-.6.1h-1.1v-1.5h-.1zM38 94l-.3.3c-.1.1-.2.1-.4.1h-1.7v-1.7h1.2c.3 0 .6 0 .7.1.2.1.3.2.4.3.1.1.1.3.1.5.1.1 0 .2 0 .4zm5.1-3.8c-.4-.2-.8-.3-1.3-.3-.7 0-1.3.2-1.7.7-.4.5-.7 1.1-.7 2 0 .4.1.9.3 1.3.2.4.5.7.8.9.4.2.8.3 1.3.3.4 0 .8-.1 1.2-.3.4-.2.7-.5.9-.9.2-.4.3-.9.3-1.4 0-.5-.1-.9-.3-1.3-.2-.4-.4-.7-.8-1zm0 3.8c-.3.4-.7.5-1.2.5s-.9-.2-1.2-.5c-.3-.3-.5-.8-.5-1.4 0-.8.2-1.3.5-1.6.3-.3.7-.5 1.2-.5.3 0 .6.1.9.3.3.2.5.4.6.7.1.3.2.7.2 1.1 0 .5-.2 1-.5 1.4zm7.3-2h-2.6v-2h-.7v5h.7v-2.4h2.6V95h.6v-5h-.7v2h.1zm5.2-1.8c-.4-.2-.8-.3-1.3-.3-.7 0-1.3.2-1.7.7-.4.5-.7 1.1-.7 2 0 .4.1.9.3 1.3.2.4.5.7.8.9.4.2.8.3 1.3.3.4 0 .8-.1 1.2-.3.4-.2.7-.5.9-.9.2-.4.3-.9.3-1.4 0-.5-.1-.9-.3-1.3-.2-.4-.5-.7-.8-1zm-.1 3.8c-.3.4-.7.5-1.2.5s-.9-.2-1.2-.5c-.3-.3-.5-.8-.5-1.4 0-.8.2-1.3.5-1.6.3-.3.7-.5 1.2-.5.3 0 .6.1.9.3.3.2.5.4.6.7.1.3.2.7.2 1.1 0 .5-.1 1-.5 1.4zm4.9-1.7c.2-.1.4-.3.5-.5.1-.2.2-.4.2-.6 0-.2-.1-.5-.2-.7-.1-.2-.3-.4-.5-.5h-2.9v5h1.9c.3 0 .6 0 .8-.1.2-.1.4-.1.5-.2.1-.1.3-.3.4-.5.1-.2.1-.4.1-.7 0-.3-.1-.5-.2-.8-.1-.1-.3-.3-.6-.4zm-2.2-1.7h1c.4 0 .6 0 .8.1.1 0 .3.1.3.3.1.1.1.3.1.4 0 .2 0 .3-.1.4-.1.1-.2.2-.4.2-.1 0-.3.1-.6.1h-1.1v-1.5zm2.3 3.4l-.3.3c-.1.1-.2.1-.4.1h-1.7v-1.7h1.2c.3 0 .6 0 .7.1.2.1.3.2.4.3.1.1.1.3.1.5.1.1.1.2 0 .4zm5.2-3.8c-.4-.2-.8-.3-1.3-.3-.7 0-1.3.2-1.7.7-.4.5-.7 1.1-.7 2 0 .4.1.9.3 1.3.2.4.5.7.8.9.4.2.8.3 1.3.3.4 0 .8-.1 1.2-.3.4-.2.7-.5.9-.9.2-.4.3-.9.3-1.4 0-.5-.1-.9-.3-1.3-.2-.4-.4-.7-.8-1zm0 3.8c-.3.4-.7.5-1.2.5s-.9-.2-1.2-.5c-.3-.3-.5-.8-.5-1.4 0-.8.2-1.3.5-1.6.3-.3.7-.5 1.2-.5.3 0 .6.1.9.3.3.2.5.4.6.7.1.3.2.7.2 1.1-.1.5-.2 1-.5 1.4zm5 .2c-.3.2-.6.3-.9.3-.3 0-.6-.1-.9-.2-.3-.2-.5-.4-.6-.7-.1-.3-.2-.7-.2-1.1 0-.3.1-.7.2-1 .1-.3.3-.6.5-.7.3-.2.6-.3 1-.3.3 0 .6.1.8.2.2.2.4.4.5.8l.7-.2c-.1-.5-.4-.8-.7-1.1-.3-.3-.8-.4-1.3-.4-.4 0-.8.1-1.2.3-.4.2-.7.5-.9.9-.2.4-.3.8-.3 1.4 0 .5.1.9.3 1.3.2.4.4.7.8 1 .4.3.8.3 1.3.3s1-.1 1.3-.4c.4-.3.6-.7.8-1.2l-.7-.2c0 .5-.2.8-.5 1zm1.7-3.6H74V95h.7v-4.4h1.7V90h-4v.6zm7.9-.3c-.2-.1-.4-.2-.6-.2H77v5h.7v-2H79c.7 0 1.2-.1 1.5-.4.3-.3.4-.7.4-1.1 0-.2-.1-.5-.2-.7-.1-.4-.3-.5-.4-.6zm-.4 1.8c-.2.2-.5.2-.9.2h-1.3v-1.8h1.9c.2 0 .3.1.4.3.1.2.2.3.2.5-.1.4-.1.7-.3.8zm5.2-1.9c-.4-.2-.8-.3-1.3-.3-.7 0-1.3.2-1.7.7-.4.5-.7 1.1-.7 2 0 .4.1.9.3 1.3.2.4.5.7.8.9.4.2.8.3 1.3.3.4 0 .8-.1 1.2-.3.4-.2.7-.5.9-.9.2-.4.3-.9.3-1.4 0-.5-.1-.9-.3-1.3-.2-.4-.4-.7-.8-1zm0 3.8c-.3.4-.7.5-1.2.5s-.9-.2-1.2-.5c-.3-.3-.5-.8-.5-1.4 0-.8.2-1.3.5-1.6.3-.3.7-.5 1.2-.5.3 0 .6.1.9.3.3.2.5.4.6.7.1.3.2.7.2 1.1 0 .5-.2 1-.5 1.4zm2.7-1.3h2.8v-.6h-2.8v-1.5h3V90h-3.6v5h3.7v-.6h-3.1v-1.7zm5.5-.3c.2-.1.3-.2.4-.3.1-.1.3-.4.4-.8.1-.3.3-.6.4-.7.1-.1.3-.2.5-.2h.2V90h-.4c-.2 0-.4 0-.6.1-.2.1-.3.2-.4.3-.1.1-.2.4-.3.7-.2.4-.3.7-.5.8-.2.1-.3.2-.6.2V90h-.7v5h.7v-2.3c.2 0 .4.1.6.2.2.1.3.4.6.8l.8 1.4h.8l-1-1.7c-.2-.6-.6-.9-.9-1z"/>
        <path d="M72.7 43.3l-41-41c-1.8-1.8-4.6-1.8-6.4 0-1.8 1.8-1.8 4.6 0 6.4l41 41c1.8 1.8 4.6 1.8 6.4 0 1.7-1.8 1.7-4.6 0-6.4zm-2.1 4.3c-.6.6-1.5.6-2.1 0l-41-41c-.6-.6-.6-1.5 0-2.1.6-.6 1.5-.6 2.1 0l41 41c.6.5.6 1.5 0 2.1z"/>
    </g>
</symbol><symbol id="ico-social-chat" viewBox="0 0 5 6">
    <title>
        social-chat
    </title>
    <path d="M4.5.9H1.1c-.3 0-.5.2-.5.5v2.2c0 .2.3.4.5.4h.5v1.2L3 4h1.4c.3 0 .6-.2.6-.5V1.4c0-.3-.3-.5-.5-.5z" fill-rule="evenodd"/>
</symbol><symbol id="ico-social-fb" viewBox="0 0 30 14">
    <title>
        social-fb
    </title>
    <path d="M17.3 13.6l-5.8-6.2L.3 13.6 12.7.4l5.9 6.2L29.7.4z" fill-rule="nonzero"/>
</symbol><symbol id="ico-social-gmail" viewBox="0 0 20 16">
    <title>
        social-gmail
    </title>
    <path d="M20 14c0 1.1-.9 2-2 2H2c-1.1 0-2-.9-2-2V2C0 .9.9 0 2 0h16c1.1 0 2 .9 2 2v12zM10 6.2L3.2 2H2v12h2V5.2L10 9l6-3.8V14h2V2h-1.2L10 6.2z" fill-rule="nonzero"/>
</symbol><symbol id="ico-social-skype" viewBox="0 0 22 22">
    <title>
        social-skype
    </title>
    <path d="M16 22c-1.2 0-2.3-.3-3.2-.9-.6.1-1.2.2-1.8.2C5.4 21.3.9 16.7.9 11.1c0-.5 0-1.1.1-1.6-.6-1-1-2.1-1-3.3C0 2.7 2.7 0 6 0c1.2 0 2.3.4 3.3 1 .5-.1 1.1-.1 1.6-.1C16.5.8 21 5.4 21 11c0 .5 0 .9-.1 1.4.7 1 1 2.2 1 3.4.1 3.5-2.6 6.2-5.9 6.2zM9.7 9.4c-2.9-.7-1.3-3.3 1-3.2 2.3 0 3.5 2.5 4.5 2.4 1-.1 1.9-1.7.3-3.1-1.4-1.2-3.2-1.9-6-1.7C7.3 4 5.3 5.4 5 8.2c-.3 2.8 3 4.2 5.5 4.6 1.8.3 4.2 1.1 2.8 2.9-1.3 1.6-3.9.6-4.6.2-.7-.4-1.4-2-2.7-1.9-1.3.1-1.9 1.8-.3 3.2 1.4 1.3 2.9 2 6.1 1.9 3.2-.2 6.1-3.1 5-5.8-1.1-2.9-4.2-3.2-7.1-3.9z" fill-rule="nonzero"/>
</symbol><symbol id="ico-social-sms" viewBox="0 0 22 24">
    <title>
        social-sms
    </title>
    <path d="M11 24v-4C4.9 20 0 15.5 0 10S4.9 0 11 0s11 4.5 11 10c0 8.6-11 14-11 14zm6-16.1c.2 0 .4.1.6.2.1.2.2.4.2.7h1.1c0-.5-.2-1-.5-1.3-.4-.3-.8-.5-1.4-.5-.5 0-1 .2-1.3.5-.3.3-.5.7-.5 1.2s.2.8.5 1.1c.3.2.8.5 1.4.7.3.1.5.3.6.4.1.2.2.4.2.6 0 .2-.1.4-.2.5-.2.1-.4.2-.6.2-.3 0-.6 0-.7-.2-.1-.2-.2-.4-.2-.8h-1.1c0 .6.2 1.1.6 1.4.4.3.8.5 1.4.5.5 0 1-.2 1.3-.5.3-.3.5-.7.5-1.2s-.1-.9-.4-1.2c-.3-.3-.7-.5-1.3-.7-.3-.1-.6-.3-.7-.4-.1-.1-.2-.3-.2-.5s.1-.4.2-.5c.1-.1.3-.2.5-.2zm-12 0c.2 0 .4.1.6.2.1.2.2.4.2.7h1.1c0-.5-.2-1-.5-1.3C6 7.2 5.6 7 5 7c-.5 0-1 .2-1.4.5-.3.3-.5.7-.5 1.2 0 .4.2.8.6 1.1.3.2.8.5 1.4.7.3.1.5.3.6.4.1.2.2.4.2.6 0 .2-.1.4-.2.5-.2.1-.4.2-.6.2-.3 0-.6 0-.7-.2-.1-.2-.2-.4-.2-.8H3.1c0 .6.2 1.1.6 1.4.4.3.8.5 1.4.5.5 0 1-.2 1.3-.4.3-.3.5-.7.5-1.2s-.1-.9-.4-1.2c-.3-.3-.7-.5-1.3-.7-.3-.1-.6-.3-.7-.4-.1-.1-.2-.3-.2-.5 0-.3 0-.4.2-.6.1-.1.3-.2.5-.2zm6 3.6L9.9 7.1H8.4V13h1.1V9.3l1.1 3.7h.8l1.1-3.7V13h1.1V7.1h-1.5L11 11.5z" fill-rule="nonzero"/>
</symbol><symbol id="ico-social-tg" viewBox="0 0 25 20">
    <title>
        social-tg
    </title>
    <path d="M24.6 3.3c-1.1 5.2-2.2 10.4-3.3 15.5-.3 1.2-1.1 1.6-2.2.8-1.7-1.2-3.4-2.5-5.1-3.8-.1-.1-.2-.1-.3-.2L11 18.3c-.3.3-.7.5-1.1.5-.3 0-.5-.2-.6-.4-.7-2.1-1.4-4.3-2.1-6.4-.1-.2-.2-.3-.4-.4-1.6-.5-3.3-1-4.9-1.5-.3-.1-.5-.2-.7-.3-.3-.2-.4-.6-.1-.9.3-.2.6-.5 1-.6 2-.8 4-1.5 6-2.3C13.2 4.1 18.3 2.1 23.4.2c1-.4 1.7.2 1.6 1.2-.1.6-.2 1.2-.4 1.9zm-4.9.6c-3.8 2.4-7.6 4.8-11.5 7.2-.2.1-.3.2-.2.5.3.8.5 1.6.8 2.4.4 1.1.7 2.2 1.1 3.2h.1v-.1c.1-1.2.2-2.3.3-3.5 0-.3.1-.4.3-.6 1.6-1.4 3.1-2.8 4.7-4.2 1.7-1.6 3.5-3.1 5.2-4.7.1-.1.2-.3.2-.4-.2 0-.3-.1-.5 0-.1 0-.3.1-.5.2z" fill-rule="nonzero"/>
</symbol><symbol id="ico-social-viber" viewBox="0 0 22 22">
    <title>
        social-viber
    </title>
    <path d="M11 19H9.9l-2.2 2.5c-.3.3-.7.5-1.2.5-.8 0-1.5-.7-1.5-1.5v-2.2c-3.4-1.2-5-4.1-5-8.7C0 .8 5.7.1 11 .1s11 .7 11 9.5c0 8.7-5.7 9.4-11 9.4zm0-13c1.7 0 3 1.3 3 3 0 .3.2.5.5.5s.5-.2.5-.5c0-2.2-1.8-4-4-4-.3 0-.5.2-.5.5s.2.5.5.5zm4.7 6.1l-2-1c-.2-.1-.3-.1-.5-.1-.7.1-1.4.5-1.8 1-.7-.3-1.4-.7-2-1.3-.6-.6-1-1.3-1.3-2 .5-.5 1.3-1.6.9-2.4l-1-2c-.1-.2-.3-.3-.5-.3h-1C5 4.3 4 5.5 4 7c0 1.6 1.9 4.6 3.1 5.8 1.3 1.3 4.3 3.1 5.9 3.1 1.5 0 2.8-1 3-2.5v-1c0-.1-.1-.3-.3-.3zM11 8c.6 0 1 .4 1 1 0 .3.2.5.5.5s.5-.2.5-.5c0-1.1-.9-2-2-2-.3 0-.5.2-.5.5s.2.5.5.5zm0-5c-.3 0-.5.2-.5.5s.2.5.5.5c2.8 0 5 2.2 5 5 0 .3.2.5.5.5s.5-.2.5-.5c0-3.3-2.7-6-6-6z" fill-rule="nonzero"/>
</symbol><symbol id="ico-social-vk" viewBox="0 0 27 16">
    <title>
        social-vk
    </title>
    <path d="M25.5 15.8H22s-.8.1-1.7-.5c-1.3-.9-2.5-3.2-3.5-2.9-1 .3-.9 2.4-.9 2.4s0 .4-.2.7c-.2.3-.7.3-.7.3h-1.6s-3.5.2-6.5-3C3.6 9.3.6 2.5.6 2.5s-.2-.5 0-.7c.2-.2.8-.3.8-.3h3.8s.4.1.6.2c.2.2.3.4.3.4S6.7 3.6 7.5 5c1.6 2.7 2.3 3.3 2.8 3 .8-.4.5-3.8.5-3.8s0-1.2-.4-1.8c-.3-.4-.9-.6-1.2-.6-.2 0 .1-.5.6-.7.7-.3 1.9-.3 3.3-.3 1.1 0 1.4.1 1.8.2 1.3.3.9 1.5.9 4.4 0 .9-.2 2.2.5 2.7.3.2 1 0 2.7-3 .8-1.4 1.5-3.1 1.5-3.1s.1-.3.3-.4c.2-.1.5-.1.5-.1h3.9s1.2-.1 1.4.4c.2.6-.4 1.9-2.1 4-2.6 3.5-2.9 3.2-.7 5.2 2.1 2 2.5 2.9 2.6 3 .9 1.6-.9 1.7-.9 1.7z" fill-rule="nonzero"/>
</symbol><symbol id="ico-social-whatsup" viewBox="0 0 25 25">
    <title>
        social-whatsup
    </title>
    <g fill-rule="nonzero">
        <path d="M12.4 24.6c-2 0-4-.5-5.7-1.5L.3 24.8 2 18.6C.9 16.8.4 14.7.4 12.6.4 6 5.8.6 12.4.6c3.2 0 6.2 1.3 8.5 3.5 2.3 2.3 3.5 5.3 3.5 8.5 0 6.6-5.4 12-12 12zm0-22c-5.5 0-10 4.5-10 10 0 1.9.5 3.7 1.5 5.3l.2.4-1 3.7 3.8-1 .4.2c1.5.9 3.3 1.4 5.1 1.4 5.5 0 10-4.5 10-10 0-2.7-1-5.2-2.9-7.1-1.9-1.9-4.4-2.9-7.1-2.9z"/>
        <path d="M18.3 16.9c-.3.7-1.4 1.3-2 1.4-.5.1-1.2.1-1.9-.1-.4-.1-1-.3-1.7-.6-3-1.3-5-4.3-5.1-4.5-.2-.2-1.2-1.6-1.2-3.1s.8-2.2 1.1-2.5c.3-.3.6-.4.8-.4h.6c.2 0 .4-.1.7.5.3.6.9 2.1.9 2.2.1.2.1.3 0 .5s-.2.3-.3.5c-.2.2-.3.4-.5.5-.2.1-.3.3-.1.6.2.3.8 1.3 1.7 2.1 1.1 1 2.1 1.3 2.4 1.5.3.2.5.1.7-.1.2-.2.8-.9 1-1.2.2-.3.4-.3.7-.2.3.1 1.8.8 2.1 1 .3.2.5.2.6.4-.2.1-.2.8-.5 1.5z"/>
    </g>
</symbol><symbol id="ico-star" viewBox="0 0 40 39">
    <title>
        star
    </title>
    <path d="M38.4 14H25.5l-4-12c-.2-.7-.8-1.2-1.6-1.2-.7 0-1.4.5-1.6 1.2l-3.9 12H1.6c-.9 0-1.6.7-1.6 1.6 0 .5.3 1 .7 1.3.3.2 10.4 7.5 10.4 7.5s-3.9 11.9-4 12.1c0 .3-.1.4-.1.6 0 .9.7 1.6 1.6 1.6.3 0 .7-.1.9-.3L20 30.9s10.2 7.3 10.4 7.5c.3.2.6.3.9.3.9 0 1.6-.7 1.6-1.6 0-.2 0-.4-.1-.6-.1-.2-4-12.1-4-12.1S39 17.1 39.3 17c.4-.3.7-.8.7-1.3 0-1-.7-1.7-1.6-1.7z" fill-rule="evenodd"/>
</symbol></svg>