<?xml version="1.0" encoding="utf-8"?>
<!-- Generator: Adobe Illustrator 21.1.0, SVG Export Plug-In . SVG Version: 6.00 Build 0)  -->
<svg version="1.1" id="Shape_10_copy_1_" xmlns="http://www.w3.org/2000/svg" xmlns:xlink="http://www.w3.org/1999/xlink" x="0px"
	 y="0px" viewBox="0 0 40 40" style="enable-background:new 0 0 40 40;" xml:space="preserve">
<style type="text/css">
	.st0{fill:#139BD0;}
	.st1{fill:#FFFFFF;}
</style>
<path class="st0" d="M20,0C9,0,0,9,0,20s9,20,20,20s20-9,20-20S31,0,20,0z"/>
<path class="st1" d="M29.6,13.3c-1.1,5.2-2.2,10.4-3.3,15.5c-0.3,1.2-1.1,1.6-2.2,0.8c-1.7-1.2-3.4-2.5-5.1-3.8
	c-0.1-0.1-0.2-0.1-0.3-0.2c-0.9,0.9-1.8,1.8-2.7,2.7c-0.3,0.3-0.7,0.5-1.1,0.5c-0.3,0-0.5-0.2-0.6-0.4c-0.7-2.1-1.4-4.3-2.1-6.4
	c-0.1-0.2-0.2-0.3-0.4-0.4c-1.6-0.5-3.3-1-4.9-1.5c-0.3-0.1-0.5-0.2-0.7-0.3c-0.3-0.2-0.4-0.6-0.1-0.9c0.3-0.2,0.6-0.5,1-0.6
	c2-0.8,4-1.5,6-2.3c5.1-1.9,10.2-3.9,15.3-5.8c1-0.4,1.7,0.2,1.6,1.2C29.9,12,29.8,12.6,29.6,13.3z"/>
<path class="st0" d="M24.7,13.9c-3.8,2.4-7.6,4.8-11.5,7.2c-0.2,0.1-0.3,0.2-0.2,0.5c0.3,0.8,0.5,1.6,0.8,2.4
	c0.4,1.1,0.7,2.2,1.1,3.2c0,0,0,0,0.1,0v-0.1c0.1-1.2,0.2-2.3,0.3-3.5c0-0.3,0.1-0.4,0.3-0.6c1.6-1.4,3.1-2.8,4.7-4.2
	c1.7-1.6,3.5-3.1,5.2-4.7c0.1-0.1,0.2-0.3,0.2-0.4c-0.2,0-0.3-0.1-0.5,0C25.1,13.7,24.9,13.8,24.7,13.9z"/>
</svg>
