<?xml version="1.0" encoding="utf-8"?>
<!-- Generator: Adobe Illustrator 21.1.0, SVG Export Plug-In . SVG Version: 6.00 Build 0)  -->
<svg version="1.1" id="Shape_20_copy_1_" xmlns="http://www.w3.org/2000/svg" xmlns:xlink="http://www.w3.org/1999/xlink" x="0px"
	 y="0px" viewBox="0 0 40 40" style="enable-background:new 0 0 40 40;" xml:space="preserve">
<style type="text/css">
	.st0{fill:#F1635A;}
	.st1{fill:#FFFFFF;}
</style>
<path class="st0" d="M20,0C9,0,0,9,0,20s9,20,20,20s20-9,20-20S31,0,20,0z"/>
<path class="st1" d="M30,26c0,1.1-0.9,2-2,2H12c-1.1,0-2-0.9-2-2V14c0-1.1,0.9-2,2-2h16c1.1,0,2,0.9,2,2V26z"/>
<polygon class="st0" points="20,18.2 13.2,14 12,14 12,26 14,26 14,17.2 20,21 26,17.2 26,26 28,26 28,14 26.8,14 "/>
</svg>
